<svg width="300" height="200" xmlns="http://www.w3.org/2000/svg">
  <defs>
    <linearGradient id="puzzleGrad" x1="0%" y1="0%" x2="100%" y2="100%">
      <stop offset="0%" style="stop-color:#00ced1;stop-opacity:1" />
      <stop offset="100%" style="stop-color:#008b8b;stop-opacity:1" />
    </linearGradient>
  </defs>
  <rect width="300" height="200" fill="url(#puzzleGrad)"/>
  <g transform="translate(100,50)">
    <path d="M0,0 L25,0 Q30,0 30,5 L30,20 Q30,25 25,25 L5,25 Q0,25 0,20 L0,5 Q0,0 5,0 Z" fill="#4169e1" stroke="#fff" stroke-width="2"/>
    <path d="M25,0 L50,0 Q55,0 55,5 L55,20 Q55,25 50,25 L30,25 Q25,25 25,20 L25,5 Q25,0 30,0 Z" fill="#9370db" stroke="#fff" stroke-width="2"/>
    <path d="M0,25 L25,25 Q30,25 30,30 L30,45 Q30,50 25,50 L5,50 Q0,50 0,45 L0,30 Q0,25 5,25 Z" fill="#ff69b4" stroke="#fff" stroke-width="2"/>
    <path d="M25,25 L50,25 Q55,25 55,30 L55,45 Q55,50 50,50 L30,50 Q25,50 25,45 L25,30 Q25,25 30,25 Z" fill="#32cd32" stroke="#fff" stroke-width="2"/>
  </g>
  <text x="150" y="170" font-family="Arial, sans-serif" font-size="16" font-weight="bold" fill="#fff" text-anchor="middle">🧩 PUZZLE</text>
</svg>